<mxfile host="app.diagrams.net" agent="Mozilla/5.0 (Windows NT 10.0; Win64; x64) AppleWebKit/537.36 (KHTML, like Gecko) Chrome/129.0.0.0 Safari/537.36 Edg/129.0.0.0" scale="1" border="0" version="24.7.16">
  <diagram name="Page-1" id="7tW2MRgbk4w8lTmDE0QK">
    <mxGraphModel dx="3448" dy="2230" grid="1" gridSize="10" guides="1" tooltips="1" connect="1" arrows="1" fold="1" page="1" pageScale="1" pageWidth="850" pageHeight="1100" math="0" shadow="0">
      <root>
        <mxCell id="0" />
        <mxCell id="1" parent="0" />
        <mxCell id="sQE7p52MdIrEef-SsG3c-1" value="&lt;font style=&quot;font-size: 17px;&quot;&gt;Hotels&lt;/font&gt;" style="swimlane;whiteSpace=wrap;html=1;startSize=20;" parent="1" vertex="1">
          <mxGeometry x="80" y="-210" width="210" height="240" as="geometry" />
        </mxCell>
        <mxCell id="sQE7p52MdIrEef-SsG3c-3" value="id (pk)&lt;div&gt;slug&lt;br&gt;&lt;div style=&quot;font-size: 20px;&quot;&gt;name&lt;/div&gt;&lt;div style=&quot;font-size: 20px;&quot;&gt;address&lt;/div&gt;&lt;div style=&quot;font-size: 20px;&quot;&gt;stars&lt;/div&gt;&lt;div style=&quot;font-size: 20px;&quot;&gt;hotel_image&lt;/div&gt;&lt;div style=&quot;font-size: 20px;&quot;&gt;contact_number&amp;nbsp;&lt;/div&gt;&lt;div style=&quot;font-size: 20px;&quot;&gt;revenue&lt;/div&gt;&lt;/div&gt;" style="text;html=1;align=left;verticalAlign=bottom;resizable=0;points=[];autosize=1;strokeColor=none;fillColor=none;fontSize=20;fontFamily=Times New Roman;" parent="sQE7p52MdIrEef-SsG3c-1" vertex="1">
          <mxGeometry x="10" y="20" width="160" height="210" as="geometry" />
        </mxCell>
        <mxCell id="vu3Hggt9nAvQAzfozkWM-8" style="edgeStyle=orthogonalEdgeStyle;rounded=0;orthogonalLoop=1;jettySize=auto;html=1;entryX=1;entryY=0.25;entryDx=0;entryDy=0;" edge="1" parent="1" target="sQE7p52MdIrEef-SsG3c-10">
          <mxGeometry relative="1" as="geometry">
            <mxPoint x="-50" y="110" as="targetPoint" />
            <mxPoint x="80" y="220" as="sourcePoint" />
          </mxGeometry>
        </mxCell>
        <mxCell id="sQE7p52MdIrEef-SsG3c-7" value="&lt;font style=&quot;font-size: 16px;&quot;&gt;Booking&lt;/font&gt;" style="swimlane;whiteSpace=wrap;html=1;labelBackgroundColor=none;" parent="1" vertex="1">
          <mxGeometry x="80" y="130" width="200" height="290" as="geometry" />
        </mxCell>
        <mxCell id="sQE7p52MdIrEef-SsG3c-9" value="&lt;span style=&quot;font-size: 18px;&quot;&gt;id(pk)&lt;/span&gt;&lt;div&gt;&lt;span style=&quot;font-size: 18px;&quot;&gt;room_id (fk)&lt;/span&gt;&lt;/div&gt;&lt;div&gt;&lt;span style=&quot;font-size: 18px;&quot;&gt;user_id (fk)&lt;/span&gt;&lt;/div&gt;&lt;div&gt;&lt;span style=&quot;font-size: 18px;&quot;&gt;check_in&lt;/span&gt;&lt;/div&gt;&lt;div&gt;&lt;span style=&quot;font-size: 18px;&quot;&gt;check_out&lt;/span&gt;&lt;/div&gt;&lt;div&gt;&lt;span style=&quot;font-size: 18px;&quot;&gt;email&lt;/span&gt;&lt;/div&gt;&lt;div&gt;&lt;span style=&quot;font-size: 18px;&quot;&gt;phone&lt;/span&gt;&lt;/div&gt;&lt;div&gt;&lt;span style=&quot;font-size: 18px;&quot;&gt;no_of_adults&lt;/span&gt;&lt;/div&gt;&lt;div&gt;&lt;span style=&quot;font-size: 18px;&quot;&gt;no_of_child&lt;/span&gt;&lt;/div&gt;&lt;div&gt;&lt;span style=&quot;font-size: 18px;&quot;&gt;total_price&lt;/span&gt;&lt;/div&gt;&lt;div&gt;&lt;span style=&quot;font-size: 18px;&quot;&gt;status&lt;/span&gt;&lt;/div&gt;" style="text;html=1;align=left;verticalAlign=middle;resizable=0;points=[];autosize=1;strokeColor=none;fillColor=none;" parent="sQE7p52MdIrEef-SsG3c-7" vertex="1">
          <mxGeometry x="20" y="35" width="130" height="250" as="geometry" />
        </mxCell>
        <mxCell id="vu3Hggt9nAvQAzfozkWM-11" style="edgeStyle=orthogonalEdgeStyle;rounded=0;orthogonalLoop=1;jettySize=auto;html=1;exitX=1;exitY=0.25;exitDx=0;exitDy=0;" edge="1" parent="sQE7p52MdIrEef-SsG3c-7">
          <mxGeometry relative="1" as="geometry">
            <mxPoint x="-0.5" y="35" as="targetPoint" />
            <mxPoint x="-150.5" y="290" as="sourcePoint" />
            <Array as="points">
              <mxPoint x="-150" y="291" />
              <mxPoint x="-60" y="291" />
              <mxPoint x="-60" y="35" />
            </Array>
          </mxGeometry>
        </mxCell>
        <mxCell id="sQE7p52MdIrEef-SsG3c-10" value="&lt;font style=&quot;font-size: 18px;&quot;&gt;user&lt;/font&gt;" style="swimlane;whiteSpace=wrap;html=1;startSize=30;" parent="1" vertex="1">
          <mxGeometry x="-310" y="40" width="250" height="200" as="geometry" />
        </mxCell>
        <mxCell id="sQE7p52MdIrEef-SsG3c-17" value="&lt;ul style=&quot;&quot;&gt;&lt;li style=&quot;font-size: 18px;&quot;&gt;&lt;font style=&quot;font-size: 18px;&quot;&gt;id&lt;/font&gt;&lt;/li&gt;&lt;li style=&quot;font-size: 18px;&quot;&gt;&lt;font style=&quot;font-size: 18px;&quot;&gt;name&lt;/font&gt;&lt;/li&gt;&lt;li style=&quot;font-size: 18px;&quot;&gt;&lt;font style=&quot;font-size: 18px;&quot;&gt;email&lt;/font&gt;&lt;/li&gt;&lt;li style=&quot;font-size: 18px;&quot;&gt;&lt;font style=&quot;font-size: 18px;&quot;&gt;phone_number&lt;/font&gt;&lt;/li&gt;&lt;li style=&quot;font-size: 18px;&quot;&gt;&lt;font style=&quot;font-size: 18px;&quot;&gt;password&lt;/font&gt;&lt;/li&gt;&lt;/ul&gt;" style="text;html=1;align=left;verticalAlign=middle;resizable=0;points=[];autosize=1;strokeColor=none;fillColor=none;" parent="sQE7p52MdIrEef-SsG3c-10" vertex="1">
          <mxGeometry y="25" width="180" height="150" as="geometry" />
        </mxCell>
        <mxCell id="sQE7p52MdIrEef-SsG3c-23" value="&lt;font style=&quot;font-size: 15px;&quot;&gt;Payment&lt;/font&gt;" style="swimlane;whiteSpace=wrap;html=1;" parent="1" vertex="1">
          <mxGeometry x="-290" y="355" width="220" height="320" as="geometry" />
        </mxCell>
        <mxCell id="sQE7p52MdIrEef-SsG3c-24" value="&lt;ul&gt;&lt;li&gt;&lt;font style=&quot;font-size: 18px;&quot;&gt;id&amp;nbsp;&lt;/font&gt;&lt;/li&gt;&lt;li&gt;&lt;font style=&quot;font-size: 18px;&quot;&gt;booking_id&lt;/font&gt;&lt;/li&gt;&lt;li&gt;&lt;font style=&quot;font-size: 18px;&quot;&gt;user_id&lt;/font&gt;&lt;/li&gt;&lt;li&gt;&lt;font style=&quot;font-size: 18px;&quot;&gt;amount&lt;/font&gt;&lt;/li&gt;&lt;li&gt;&lt;font style=&quot;font-size: 18px;&quot;&gt;payment_method&lt;/font&gt;&lt;/li&gt;&lt;li&gt;&lt;font style=&quot;font-size: 18px;&quot;&gt;payment_date&lt;/font&gt;&lt;/li&gt;&lt;li&gt;&lt;font style=&quot;font-size: 18px;&quot;&gt;payment_type&lt;/font&gt;&lt;/li&gt;&lt;li&gt;&lt;font style=&quot;font-size: 18px;&quot;&gt;cardholder&lt;/font&gt;&lt;/li&gt;&lt;li&gt;&lt;font style=&quot;font-size: 18px;&quot;&gt;card_number&lt;/font&gt;&lt;/li&gt;&lt;li&gt;&lt;font style=&quot;font-size: 18px;&quot;&gt;cvc&lt;/font&gt;&lt;/li&gt;&lt;li&gt;&lt;font style=&quot;font-size: 18px;&quot;&gt;exp_month&lt;/font&gt;&lt;/li&gt;&lt;li&gt;&lt;font style=&quot;font-size: 18px;&quot;&gt;exp_year&lt;/font&gt;&lt;/li&gt;&lt;li&gt;&lt;font style=&quot;font-size: 18px;&quot;&gt;transiction_id&lt;/font&gt;&lt;/li&gt;&lt;/ul&gt;" style="text;html=1;align=left;verticalAlign=middle;resizable=0;points=[];autosize=1;strokeColor=none;fillColor=none;" parent="sQE7p52MdIrEef-SsG3c-23" vertex="1">
          <mxGeometry y="15" width="200" height="320" as="geometry" />
        </mxCell>
        <mxCell id="sQE7p52MdIrEef-SsG3c-26" value="&lt;font style=&quot;font-size: 16px;&quot;&gt;Review&lt;/font&gt;" style="swimlane;whiteSpace=wrap;html=1;" parent="1" vertex="1">
          <mxGeometry x="-320" y="-260" width="250" height="230" as="geometry" />
        </mxCell>
        <mxCell id="sQE7p52MdIrEef-SsG3c-27" value="&lt;ul style=&quot;font-size: 19px;&quot;&gt;&lt;li style=&quot;font-size: 19px;&quot;&gt;&lt;font style=&quot;font-size: 19px;&quot;&gt;id&lt;/font&gt;&lt;/li&gt;&lt;li style=&quot;font-size: 19px;&quot;&gt;&lt;font style=&quot;font-size: 19px;&quot;&gt;user_id&lt;/font&gt;&lt;/li&gt;&lt;li style=&quot;font-size: 19px;&quot;&gt;&lt;span style=&quot;font-size: 19px;&quot;&gt;rating&lt;/span&gt;&lt;/li&gt;&lt;li style=&quot;font-size: 19px;&quot;&gt;&lt;span style=&quot;font-size: 19px;&quot;&gt;comment&lt;/span&gt;&lt;/li&gt;&lt;li style=&quot;font-size: 19px;&quot;&gt;&lt;span style=&quot;font-size: 19px;&quot;&gt;review_date&lt;/span&gt;&lt;/li&gt;&lt;/ul&gt;" style="text;html=1;align=left;verticalAlign=middle;resizable=0;points=[];autosize=1;strokeColor=none;fillColor=none;fontSize=19;" parent="sQE7p52MdIrEef-SsG3c-26" vertex="1">
          <mxGeometry y="30" width="170" height="170" as="geometry" />
        </mxCell>
        <mxCell id="vu3Hggt9nAvQAzfozkWM-1" value="&lt;span style=&quot;font-size: 17px;&quot;&gt;Rooms&lt;/span&gt;" style="swimlane;whiteSpace=wrap;html=1;startSize=20;" vertex="1" parent="1">
          <mxGeometry x="470" y="-30" width="210" height="240" as="geometry" />
        </mxCell>
        <mxCell id="sQE7p52MdIrEef-SsG3c-5" value="&lt;ul&gt;&lt;li&gt;&lt;span style=&quot;font-size: 18px;&quot;&gt;id (pk)&lt;/span&gt;&lt;/li&gt;&lt;li&gt;&lt;span style=&quot;font-size: 18px;&quot;&gt;hotel_id(fk)&lt;/span&gt;&lt;/li&gt;&lt;li&gt;&lt;span style=&quot;font-size: 18px;&quot;&gt;room_number&lt;/span&gt;&lt;/li&gt;&lt;li&gt;&lt;span style=&quot;font-size: 18px;&quot;&gt;room_type&lt;/span&gt;&lt;/li&gt;&lt;li&gt;&lt;span style=&quot;font-size: 18px;&quot;&gt;room_description&lt;/span&gt;&lt;/li&gt;&lt;li&gt;&lt;span style=&quot;font-size: 18px;&quot;&gt;room_image&lt;/span&gt;&lt;/li&gt;&lt;li&gt;&lt;span style=&quot;font-size: 18px;&quot;&gt;room_price&lt;/span&gt;&lt;/li&gt;&lt;li&gt;&lt;span style=&quot;font-size: 18px;&quot;&gt;status&lt;/span&gt;&lt;/li&gt;&lt;/ul&gt;" style="text;html=1;align=left;verticalAlign=middle;resizable=0;points=[];autosize=1;strokeColor=none;fillColor=none;" parent="vu3Hggt9nAvQAzfozkWM-1" vertex="1">
          <mxGeometry x="-10" y="20" width="200" height="210" as="geometry" />
        </mxCell>
        <mxCell id="vu3Hggt9nAvQAzfozkWM-4" value="" style="endArrow=none;html=1;rounded=0;exitX=1;exitY=0.25;exitDx=0;exitDy=0;entryX=0.017;entryY=0.255;entryDx=0;entryDy=0;entryPerimeter=0;edgeStyle=orthogonalEdgeStyle;" edge="1" parent="1" source="sQE7p52MdIrEef-SsG3c-1" target="sQE7p52MdIrEef-SsG3c-5">
          <mxGeometry width="50" height="50" relative="1" as="geometry">
            <mxPoint x="330" y="90" as="sourcePoint" />
            <mxPoint x="380" y="40" as="targetPoint" />
          </mxGeometry>
        </mxCell>
        <mxCell id="vu3Hggt9nAvQAzfozkWM-6" value="" style="endArrow=none;html=1;rounded=0;exitX=1;exitY=0.25;exitDx=0;exitDy=0;entryX=0.025;entryY=0.149;entryDx=0;entryDy=0;entryPerimeter=0;edgeStyle=orthogonalEdgeStyle;" edge="1" parent="1" source="sQE7p52MdIrEef-SsG3c-7" target="sQE7p52MdIrEef-SsG3c-5">
          <mxGeometry width="50" height="50" relative="1" as="geometry">
            <mxPoint x="360" y="150" as="sourcePoint" />
            <mxPoint x="410" y="100" as="targetPoint" />
          </mxGeometry>
        </mxCell>
        <mxCell id="vu3Hggt9nAvQAzfozkWM-12" style="edgeStyle=orthogonalEdgeStyle;rounded=0;orthogonalLoop=1;jettySize=auto;html=1;exitX=0;exitY=0.219;exitDx=0;exitDy=0;exitPerimeter=0;" edge="1" parent="1" source="sQE7p52MdIrEef-SsG3c-24" target="sQE7p52MdIrEef-SsG3c-17">
          <mxGeometry relative="1" as="geometry">
            <mxPoint x="-330" y="100" as="targetPoint" />
            <Array as="points">
              <mxPoint x="-430" y="440" />
              <mxPoint x="-430" y="90" />
            </Array>
          </mxGeometry>
        </mxCell>
        <mxCell id="vu3Hggt9nAvQAzfozkWM-14" value="" style="endArrow=none;html=1;rounded=0;entryX=-0.012;entryY=0.366;entryDx=0;entryDy=0;entryPerimeter=0;exitX=-0.009;exitY=0.187;exitDx=0;exitDy=0;exitPerimeter=0;edgeStyle=orthogonalEdgeStyle;" edge="1" parent="1" source="sQE7p52MdIrEef-SsG3c-17" target="sQE7p52MdIrEef-SsG3c-27">
          <mxGeometry width="50" height="50" relative="1" as="geometry">
            <mxPoint x="-240" y="-20" as="sourcePoint" />
            <mxPoint x="-190" y="-70" as="targetPoint" />
            <Array as="points">
              <mxPoint x="-450" y="93" />
              <mxPoint x="-450" y="-168" />
            </Array>
          </mxGeometry>
        </mxCell>
        <mxCell id="vu3Hggt9nAvQAzfozkWM-15" value="Admins" style="swimlane;whiteSpace=wrap;html=1;" vertex="1" parent="1">
          <mxGeometry x="-330" y="-690" width="190" height="230" as="geometry" />
        </mxCell>
        <mxCell id="vu3Hggt9nAvQAzfozkWM-16" value="&lt;ul style=&quot;font-size: 19px;&quot;&gt;&lt;li style=&quot;font-size: 19px;&quot;&gt;&lt;font style=&quot;font-size: 19px;&quot;&gt;id&lt;/font&gt;&lt;/li&gt;&lt;li style=&quot;font-size: 19px;&quot;&gt;name&lt;/li&gt;&lt;li style=&quot;font-size: 19px;&quot;&gt;email&lt;/li&gt;&lt;li style=&quot;font-size: 19px;&quot;&gt;password&lt;/li&gt;&lt;li style=&quot;font-size: 19px;&quot;&gt;role&lt;/li&gt;&lt;li style=&quot;font-size: 19px;&quot;&gt;status&lt;/li&gt;&lt;/ul&gt;" style="text;html=1;align=left;verticalAlign=middle;resizable=0;points=[];autosize=1;strokeColor=none;fillColor=none;fontSize=19;" vertex="1" parent="vu3Hggt9nAvQAzfozkWM-15">
          <mxGeometry x="10" y="30" width="140" height="190" as="geometry" />
        </mxCell>
        <mxCell id="vu3Hggt9nAvQAzfozkWM-17" value="Blogs" style="swimlane;whiteSpace=wrap;html=1;" vertex="1" parent="1">
          <mxGeometry x="90" y="-665" width="200" height="230" as="geometry" />
        </mxCell>
        <mxCell id="vu3Hggt9nAvQAzfozkWM-18" value="&lt;ul style=&quot;font-size: 19px;&quot;&gt;&lt;li style=&quot;font-size: 19px;&quot;&gt;&lt;font style=&quot;font-size: 19px;&quot;&gt;id&lt;/font&gt;&lt;/li&gt;&lt;li style=&quot;font-size: 19px;&quot;&gt;&lt;font style=&quot;font-size: 19px;&quot;&gt;title&lt;/font&gt;&lt;/li&gt;&lt;li style=&quot;font-size: 19px;&quot;&gt;slug&lt;/li&gt;&lt;li style=&quot;font-size: 19px;&quot;&gt;description&amp;nbsp;&lt;/li&gt;&lt;li style=&quot;font-size: 19px;&quot;&gt;image&lt;/li&gt;&lt;li style=&quot;font-size: 19px;&quot;&gt;url&lt;/li&gt;&lt;li style=&quot;font-size: 19px;&quot;&gt;author&lt;/li&gt;&lt;/ul&gt;" style="text;html=1;align=left;verticalAlign=middle;resizable=0;points=[];autosize=1;strokeColor=none;fillColor=none;fontSize=19;" vertex="1" parent="vu3Hggt9nAvQAzfozkWM-17">
          <mxGeometry x="10" y="30" width="160" height="210" as="geometry" />
        </mxCell>
        <mxCell id="vu3Hggt9nAvQAzfozkWM-21" value="Banners" style="swimlane;whiteSpace=wrap;html=1;" vertex="1" parent="1">
          <mxGeometry x="490" y="-380" width="190" height="140" as="geometry" />
        </mxCell>
        <mxCell id="vu3Hggt9nAvQAzfozkWM-24" value="&lt;ul style=&quot;font-size: 19px;&quot;&gt;&lt;li style=&quot;font-size: 19px;&quot;&gt;room_id&lt;/li&gt;&lt;li style=&quot;font-size: 19px;&quot;&gt;discount&lt;/li&gt;&lt;/ul&gt;" style="text;html=1;align=left;verticalAlign=middle;resizable=0;points=[];autosize=1;strokeColor=none;fillColor=none;fontSize=19;" vertex="1" parent="vu3Hggt9nAvQAzfozkWM-21">
          <mxGeometry x="10" y="30" width="130" height="100" as="geometry" />
        </mxCell>
        <mxCell id="vu3Hggt9nAvQAzfozkWM-22" value="" style="endArrow=none;html=1;rounded=0;edgeStyle=orthogonalEdgeStyle;" edge="1" parent="1">
          <mxGeometry width="50" height="50" relative="1" as="geometry">
            <mxPoint x="-140" y="-620" as="sourcePoint" />
            <mxPoint x="80" y="-460" as="targetPoint" />
            <Array as="points">
              <mxPoint x="-10" y="-619" />
              <mxPoint x="-10" y="-460" />
            </Array>
          </mxGeometry>
        </mxCell>
        <mxCell id="vu3Hggt9nAvQAzfozkWM-25" value="" style="endArrow=none;html=1;rounded=0;entryX=0;entryY=0.5;entryDx=0;entryDy=0;edgeStyle=orthogonalEdgeStyle;" edge="1" parent="1" source="sQE7p52MdIrEef-SsG3c-5" target="vu3Hggt9nAvQAzfozkWM-21">
          <mxGeometry width="50" height="50" relative="1" as="geometry">
            <mxPoint x="490" y="-150" as="sourcePoint" />
            <mxPoint x="540" y="-200" as="targetPoint" />
            <Array as="points">
              <mxPoint x="420" y="20" />
              <mxPoint x="420" y="-310" />
            </Array>
          </mxGeometry>
        </mxCell>
        <mxCell id="vu3Hggt9nAvQAzfozkWM-31" value="About" style="swimlane;whiteSpace=wrap;html=1;startSize=40;" vertex="1" parent="1">
          <mxGeometry x="-650" y="-600" width="200" height="260" as="geometry" />
        </mxCell>
        <mxCell id="vu3Hggt9nAvQAzfozkWM-32" value="&lt;ul style=&quot;font-size: 19px;&quot;&gt;&lt;li style=&quot;font-size: 19px;&quot;&gt;id&amp;nbsp;&amp;nbsp;&lt;/li&gt;&lt;li style=&quot;font-size: 19px;&quot;&gt;title&lt;/li&gt;&lt;li style=&quot;font-size: 19px;&quot;&gt;description&lt;/li&gt;&lt;li style=&quot;font-size: 19px;&quot;&gt;address&lt;/li&gt;&lt;li style=&quot;font-size: 19px;&quot;&gt;phone&lt;/li&gt;&lt;li style=&quot;font-size: 19px;&quot;&gt;email&lt;/li&gt;&lt;li style=&quot;font-size: 19px;&quot;&gt;website&lt;/li&gt;&lt;li style=&quot;font-size: 19px;&quot;&gt;image&lt;/li&gt;&lt;/ul&gt;" style="text;html=1;align=left;verticalAlign=middle;resizable=0;points=[];autosize=1;strokeColor=none;fillColor=none;fontSize=19;" vertex="1" parent="vu3Hggt9nAvQAzfozkWM-31">
          <mxGeometry x="-20" y="40" width="160" height="230" as="geometry" />
        </mxCell>
        <mxCell id="vu3Hggt9nAvQAzfozkWM-37" value="" style="endArrow=none;html=1;rounded=0;fontFamily=Helvetica;fontSize=12;fontColor=default;fontStyle=1;resizable=0;exitX=-0.006;exitY=0.176;exitDx=0;exitDy=0;exitPerimeter=0;edgeStyle=orthogonalEdgeStyle;entryX=1;entryY=0.25;entryDx=0;entryDy=0;" edge="1" parent="1" source="sQE7p52MdIrEef-SsG3c-17" target="vu3Hggt9nAvQAzfozkWM-33">
          <mxGeometry width="50" height="50" relative="1" as="geometry">
            <mxPoint x="-311" y="91" as="sourcePoint" />
            <mxPoint x="-600" as="targetPoint" />
            <Array as="points" />
          </mxGeometry>
        </mxCell>
        <mxCell id="vu3Hggt9nAvQAzfozkWM-33" value="Contact" style="swimlane;whiteSpace=wrap;html=1;strokeColor=default;align=center;verticalAlign=middle;fontFamily=Helvetica;fontSize=12;fontColor=default;fontStyle=1;resizable=0;fillColor=default;shadow=0;" vertex="1" parent="1">
          <mxGeometry x="-850" y="-250" width="200" height="305" as="geometry" />
        </mxCell>
        <mxCell id="vu3Hggt9nAvQAzfozkWM-34" value="&lt;ul style=&quot;font-size: 19px;&quot;&gt;&lt;li style=&quot;font-size: 19px;&quot;&gt;id&amp;nbsp;&amp;nbsp;&lt;/li&gt;&lt;li style=&quot;font-size: 19px;&quot;&gt;user_id&lt;/li&gt;&lt;li style=&quot;font-size: 19px;&quot;&gt;name&lt;/li&gt;&lt;li style=&quot;font-size: 19px;&quot;&gt;email&lt;/li&gt;&lt;li style=&quot;font-size: 19px;&quot;&gt;phone&lt;/li&gt;&lt;li style=&quot;font-size: 19px;&quot;&gt;message&lt;/li&gt;&lt;/ul&gt;" style="text;html=1;align=left;verticalAlign=middle;resizable=0;points=[];autosize=1;strokeColor=none;fillColor=none;fontSize=19;" vertex="1" parent="vu3Hggt9nAvQAzfozkWM-33">
          <mxGeometry y="30" width="140" height="190" as="geometry" />
        </mxCell>
      </root>
    </mxGraphModel>
  </diagram>
</mxfile>
